<mxfile host="app.diagrams.net" modified="2022-05-29T03:51:17.008Z" agent="5.0 (Windows NT 10.0; Win64; x64) AppleWebKit/537.36 (KHTML, like Gecko) Chrome/101.0.4951.67 Safari/537.36" etag="SI7EE8V9sGR97jKMBzq4" version="18.1.2" type="github">
  <diagram id="Lt308EQDcnYlRYmlAR59" name="第 1 页">
    <mxGraphModel dx="2031" dy="1489" grid="1" gridSize="10" guides="1" tooltips="1" connect="1" arrows="1" fold="1" page="0" pageScale="1" pageWidth="827" pageHeight="1169" math="0" shadow="0">
      <root>
        <mxCell id="0" />
        <mxCell id="1" parent="0" />
        <mxCell id="IaKo93D1F_9IdLXtNiBO-1" value="" style="edgeStyle=orthogonalEdgeStyle;rounded=0;orthogonalLoop=1;jettySize=auto;html=1;" edge="1" parent="1" source="IaKo93D1F_9IdLXtNiBO-2">
          <mxGeometry relative="1" as="geometry">
            <mxPoint x="505" y="200" as="targetPoint" />
          </mxGeometry>
        </mxCell>
        <mxCell id="IaKo93D1F_9IdLXtNiBO-2" value="遍历双向链表的&lt;br&gt;每一个节点" style="verticalLabelPosition=middle;verticalAlign=middle;html=1;shape=hexagon;perimeter=hexagonPerimeter2;arcSize=6;size=0.27;shadow=1;labelBorderColor=none;fontSize=12;strokeColor=#d6b656;strokeWidth=1;labelPosition=center;align=center;fillColor=#fff2cc;" vertex="1" parent="1">
          <mxGeometry x="440" y="80" width="130" height="60" as="geometry" />
        </mxCell>
        <mxCell id="IaKo93D1F_9IdLXtNiBO-3" value="start" style="strokeWidth=1;html=1;shape=mxgraph.flowchart.start_2;whiteSpace=wrap;labelBorderColor=none;strokeColor=#82b366;perimeterSpacing=1;fillColor=#d5e8d4;shadow=1;fontSize=14;" vertex="1" parent="1">
          <mxGeometry x="465" y="-70" width="80" height="80" as="geometry" />
        </mxCell>
        <mxCell id="IaKo93D1F_9IdLXtNiBO-4" value="" style="edgeStyle=orthogonalEdgeStyle;rounded=0;orthogonalLoop=1;jettySize=auto;html=1;" edge="1" parent="1" target="IaKo93D1F_9IdLXtNiBO-2">
          <mxGeometry relative="1" as="geometry">
            <mxPoint x="505" y="10" as="sourcePoint" />
          </mxGeometry>
        </mxCell>
        <mxCell id="IaKo93D1F_9IdLXtNiBO-5" value="" style="edgeStyle=orthogonalEdgeStyle;rounded=0;orthogonalLoop=1;jettySize=auto;html=1;" edge="1" parent="1" source="IaKo93D1F_9IdLXtNiBO-7" target="IaKo93D1F_9IdLXtNiBO-9">
          <mxGeometry relative="1" as="geometry">
            <Array as="points">
              <mxPoint x="600" y="259" />
              <mxPoint x="600" y="259" />
            </Array>
          </mxGeometry>
        </mxCell>
        <mxCell id="IaKo93D1F_9IdLXtNiBO-6" value="" style="edgeStyle=orthogonalEdgeStyle;rounded=0;orthogonalLoop=1;jettySize=auto;html=1;" edge="1" parent="1" source="IaKo93D1F_9IdLXtNiBO-7" target="IaKo93D1F_9IdLXtNiBO-14">
          <mxGeometry relative="1" as="geometry" />
        </mxCell>
        <mxCell id="IaKo93D1F_9IdLXtNiBO-7" value="红黑树的&lt;br&gt;root节点为空？" style="strokeWidth=1;html=1;shape=mxgraph.flowchart.decision;whiteSpace=wrap;fillColor=#f8cecc;strokeColor=#b85450;shadow=1;" vertex="1" parent="1">
          <mxGeometry x="435" y="200" width="140" height="117" as="geometry" />
        </mxCell>
        <mxCell id="IaKo93D1F_9IdLXtNiBO-8" style="edgeStyle=orthogonalEdgeStyle;rounded=0;orthogonalLoop=1;jettySize=auto;html=1;exitX=1;exitY=0.5;exitDx=0;exitDy=0;entryX=1;entryY=0.5;entryDx=0;entryDy=0;" edge="1" parent="1" source="IaKo93D1F_9IdLXtNiBO-9" target="IaKo93D1F_9IdLXtNiBO-2">
          <mxGeometry relative="1" as="geometry">
            <Array as="points">
              <mxPoint x="880" y="259" />
              <mxPoint x="880" y="110" />
            </Array>
          </mxGeometry>
        </mxCell>
        <mxCell id="IaKo93D1F_9IdLXtNiBO-9" value="初始化root节点" style="rounded=1;whiteSpace=wrap;html=1;absoluteArcSize=1;arcSize=14;strokeWidth=1;fillColor=#dae8fc;strokeColor=#6c8ebf;shadow=1;" vertex="1" parent="1">
          <mxGeometry x="650" y="233.5" width="110" height="50" as="geometry" />
        </mxCell>
        <mxCell id="IaKo93D1F_9IdLXtNiBO-10" value="&lt;b style=&quot;line-height: 2&quot;&gt;定义几个关键变量：&lt;br&gt;X：遍历双链表时用来表示当前节点&lt;br&gt;P：遍历红黑树时用来表示当前节点&lt;br&gt;dir：用来记录双链表的节点应该插到红黑树的什么方向，-1左侧 1右侧&lt;br&gt;&lt;/b&gt;" style="rounded=1;whiteSpace=wrap;html=1;absoluteArcSize=1;arcSize=14;strokeWidth=1;fillColor=#f5f5f5;strokeColor=#666666;shadow=1;fontColor=#333333;align=left;spacingTop=0;spacingRight=3;spacingLeft=5;" vertex="1" parent="1">
          <mxGeometry x="640" y="-105" width="210" height="150" as="geometry" />
        </mxCell>
        <mxCell id="IaKo93D1F_9IdLXtNiBO-11" value="true" style="edgeLabel;html=1;align=center;verticalAlign=middle;resizable=0;points=[];fontSize=15;" vertex="1" connectable="0" parent="1">
          <mxGeometry x="528" y="296" as="geometry">
            <mxPoint x="75" y="-39" as="offset" />
          </mxGeometry>
        </mxCell>
        <mxCell id="IaKo93D1F_9IdLXtNiBO-12" value="① root为黑色&lt;br&gt;②&amp;nbsp;父节点为空" style="shape=callout;whiteSpace=wrap;html=1;perimeter=calloutPerimeter;position2=0.08;fillColor=#f5f5f5;fontColor=#333333;strokeColor=#666666;size=34;position=0.25;rounded=1;" vertex="1" parent="1">
          <mxGeometry x="710" y="149.75" width="130" height="83.75" as="geometry" />
        </mxCell>
        <mxCell id="IaKo93D1F_9IdLXtNiBO-13" value="" style="edgeStyle=orthogonalEdgeStyle;rounded=0;orthogonalLoop=1;jettySize=auto;html=1;" edge="1" parent="1" source="IaKo93D1F_9IdLXtNiBO-14" target="IaKo93D1F_9IdLXtNiBO-19">
          <mxGeometry relative="1" as="geometry" />
        </mxCell>
        <mxCell id="IaKo93D1F_9IdLXtNiBO-14" value="从root节点开始遍历&lt;br&gt;红黑树" style="verticalLabelPosition=middle;verticalAlign=middle;html=1;shape=hexagon;perimeter=hexagonPerimeter2;arcSize=6;size=0.27;shadow=1;labelBorderColor=none;fontSize=12;strokeColor=#d6b656;strokeWidth=1;labelPosition=center;align=center;fillColor=#fff2cc;" vertex="1" parent="1">
          <mxGeometry x="435" y="398" width="140" height="60" as="geometry" />
        </mxCell>
        <mxCell id="IaKo93D1F_9IdLXtNiBO-15" value="false" style="edgeLabel;html=1;align=center;verticalAlign=middle;resizable=0;points=[];fontSize=15;" vertex="1" connectable="0" parent="1">
          <mxGeometry x="430" y="398" as="geometry">
            <mxPoint x="75" y="-39" as="offset" />
          </mxGeometry>
        </mxCell>
        <mxCell id="IaKo93D1F_9IdLXtNiBO-16" value="为了定位&lt;b&gt;X&lt;/b&gt;节点&lt;br&gt;应插到红黑树的什么位置" style="shape=callout;whiteSpace=wrap;html=1;perimeter=calloutPerimeter;position2=0.92;fillColor=#f5f5f5;fontColor=#333333;strokeColor=#666666;size=34;position=0.46;rounded=1;base=40;arcSize=50;" vertex="1" parent="1">
          <mxGeometry x="320" y="330" width="140" height="83.75" as="geometry" />
        </mxCell>
        <mxCell id="IaKo93D1F_9IdLXtNiBO-17" value="" style="edgeStyle=orthogonalEdgeStyle;rounded=0;orthogonalLoop=1;jettySize=auto;html=1;" edge="1" parent="1" source="IaKo93D1F_9IdLXtNiBO-19" target="IaKo93D1F_9IdLXtNiBO-21">
          <mxGeometry relative="1" as="geometry" />
        </mxCell>
        <mxCell id="IaKo93D1F_9IdLXtNiBO-18" value="" style="edgeStyle=orthogonalEdgeStyle;rounded=0;orthogonalLoop=1;jettySize=auto;html=1;" edge="1" parent="1" source="IaKo93D1F_9IdLXtNiBO-19" target="IaKo93D1F_9IdLXtNiBO-25">
          <mxGeometry relative="1" as="geometry" />
        </mxCell>
        <mxCell id="IaKo93D1F_9IdLXtNiBO-19" value="&lt;b&gt;P&lt;/b&gt;的hash大于&lt;br&gt;&lt;b&gt;X&lt;/b&gt;的hash" style="strokeWidth=1;html=1;shape=mxgraph.flowchart.decision;whiteSpace=wrap;fillColor=#f8cecc;strokeColor=#b85450;shadow=1;" vertex="1" parent="1">
          <mxGeometry x="435" y="520" width="140" height="117" as="geometry" />
        </mxCell>
        <mxCell id="IaKo93D1F_9IdLXtNiBO-20" style="edgeStyle=orthogonalEdgeStyle;rounded=0;orthogonalLoop=1;jettySize=auto;html=1;exitX=1;exitY=0.5;exitDx=0;exitDy=0;" edge="1" parent="1" source="IaKo93D1F_9IdLXtNiBO-21">
          <mxGeometry relative="1" as="geometry">
            <mxPoint x="920" y="760" as="targetPoint" />
          </mxGeometry>
        </mxCell>
        <mxCell id="IaKo93D1F_9IdLXtNiBO-21" value="将 -1 赋值给变量dir" style="rounded=1;whiteSpace=wrap;html=1;absoluteArcSize=1;arcSize=14;strokeWidth=1;fillColor=#dae8fc;strokeColor=#6c8ebf;shadow=1;" vertex="1" parent="1">
          <mxGeometry x="640" y="553.25" width="110" height="50.5" as="geometry" />
        </mxCell>
        <mxCell id="IaKo93D1F_9IdLXtNiBO-22" value="true" style="edgeLabel;html=1;align=center;verticalAlign=middle;resizable=0;points=[];fontSize=15;" vertex="1" connectable="0" parent="1">
          <mxGeometry x="528" y="616" as="geometry">
            <mxPoint x="75" y="-39" as="offset" />
          </mxGeometry>
        </mxCell>
        <mxCell id="IaKo93D1F_9IdLXtNiBO-23" value="" style="edgeStyle=orthogonalEdgeStyle;rounded=0;orthogonalLoop=1;jettySize=auto;html=1;" edge="1" parent="1" source="IaKo93D1F_9IdLXtNiBO-25" target="IaKo93D1F_9IdLXtNiBO-28">
          <mxGeometry relative="1" as="geometry" />
        </mxCell>
        <mxCell id="IaKo93D1F_9IdLXtNiBO-24" value="" style="edgeStyle=orthogonalEdgeStyle;rounded=0;orthogonalLoop=1;jettySize=auto;html=1;" edge="1" parent="1" source="IaKo93D1F_9IdLXtNiBO-25" target="IaKo93D1F_9IdLXtNiBO-32">
          <mxGeometry relative="1" as="geometry" />
        </mxCell>
        <mxCell id="IaKo93D1F_9IdLXtNiBO-25" value="&lt;b&gt;P&lt;/b&gt;的hash小于&lt;br&gt;&lt;b&gt;X&lt;/b&gt;的hash" style="strokeWidth=1;html=1;shape=mxgraph.flowchart.decision;whiteSpace=wrap;fillColor=#f8cecc;strokeColor=#b85450;shadow=1;" vertex="1" parent="1">
          <mxGeometry x="435" y="700" width="140" height="117" as="geometry" />
        </mxCell>
        <mxCell id="IaKo93D1F_9IdLXtNiBO-26" value="false" style="edgeLabel;html=1;align=center;verticalAlign=middle;resizable=0;points=[];fontSize=15;" vertex="1" connectable="0" parent="1">
          <mxGeometry x="430" y="700" as="geometry">
            <mxPoint x="75" y="-39" as="offset" />
          </mxGeometry>
        </mxCell>
        <mxCell id="IaKo93D1F_9IdLXtNiBO-27" style="edgeStyle=orthogonalEdgeStyle;rounded=0;orthogonalLoop=1;jettySize=auto;html=1;exitX=1;exitY=0.5;exitDx=0;exitDy=0;entryX=1;entryY=0.5;entryDx=0;entryDy=0;entryPerimeter=0;" edge="1" parent="1" source="IaKo93D1F_9IdLXtNiBO-28" target="IaKo93D1F_9IdLXtNiBO-41">
          <mxGeometry relative="1" as="geometry">
            <Array as="points">
              <mxPoint x="920" y="759" />
              <mxPoint x="920" y="1199" />
            </Array>
          </mxGeometry>
        </mxCell>
        <mxCell id="IaKo93D1F_9IdLXtNiBO-28" value="将1赋值给变量dir" style="rounded=1;whiteSpace=wrap;html=1;absoluteArcSize=1;arcSize=14;strokeWidth=1;fillColor=#dae8fc;strokeColor=#6c8ebf;shadow=1;" vertex="1" parent="1">
          <mxGeometry x="640" y="733.25" width="110" height="50.5" as="geometry" />
        </mxCell>
        <mxCell id="IaKo93D1F_9IdLXtNiBO-29" value="true" style="edgeLabel;html=1;align=center;verticalAlign=middle;resizable=0;points=[];fontSize=15;" vertex="1" connectable="0" parent="1">
          <mxGeometry x="526" y="795" as="geometry">
            <mxPoint x="75" y="-39" as="offset" />
          </mxGeometry>
        </mxCell>
        <mxCell id="IaKo93D1F_9IdLXtNiBO-30" value="" style="edgeStyle=orthogonalEdgeStyle;rounded=0;orthogonalLoop=1;jettySize=auto;html=1;" edge="1" parent="1" source="IaKo93D1F_9IdLXtNiBO-32" target="IaKo93D1F_9IdLXtNiBO-35">
          <mxGeometry relative="1" as="geometry" />
        </mxCell>
        <mxCell id="IaKo93D1F_9IdLXtNiBO-31" value="" style="edgeStyle=orthogonalEdgeStyle;rounded=0;orthogonalLoop=1;jettySize=auto;html=1;" edge="1" parent="1" source="IaKo93D1F_9IdLXtNiBO-32" target="IaKo93D1F_9IdLXtNiBO-41">
          <mxGeometry relative="1" as="geometry" />
        </mxCell>
        <mxCell id="IaKo93D1F_9IdLXtNiBO-32" value="（判断&lt;b&gt;X&lt;/b&gt;节点&lt;b&gt;没有&lt;br&gt;实现Comparable接口&lt;/b&gt;&lt;br&gt;）&lt;br&gt;或者&lt;br&gt;（&lt;b&gt;P和X&lt;/b&gt;&lt;b&gt;的hash&lt;/b&gt;值的&lt;b&gt;compareTo&lt;br&gt;等于0&lt;/b&gt;&lt;br&gt;）" style="strokeWidth=1;html=1;shape=mxgraph.flowchart.decision;whiteSpace=wrap;fillColor=#f8cecc;strokeColor=#b85450;shadow=1;" vertex="1" parent="1">
          <mxGeometry x="392.15999999999997" y="880" width="225.68" height="180" as="geometry" />
        </mxCell>
        <mxCell id="IaKo93D1F_9IdLXtNiBO-33" value="false" style="edgeLabel;html=1;align=center;verticalAlign=middle;resizable=0;points=[];fontSize=15;" vertex="1" connectable="0" parent="1">
          <mxGeometry x="430" y="880" as="geometry">
            <mxPoint x="75" y="-39" as="offset" />
          </mxGeometry>
        </mxCell>
        <mxCell id="IaKo93D1F_9IdLXtNiBO-34" style="edgeStyle=orthogonalEdgeStyle;rounded=0;orthogonalLoop=1;jettySize=auto;html=1;exitX=1;exitY=0.5;exitDx=0;exitDy=0;" edge="1" parent="1" source="IaKo93D1F_9IdLXtNiBO-35">
          <mxGeometry relative="1" as="geometry">
            <mxPoint x="840" y="1200" as="targetPoint" />
          </mxGeometry>
        </mxCell>
        <mxCell id="IaKo93D1F_9IdLXtNiBO-35" value="调用tieBreakOrder函数返回-1或1" style="rounded=1;whiteSpace=wrap;html=1;absoluteArcSize=1;arcSize=14;strokeWidth=1;fillColor=#dae8fc;strokeColor=#6c8ebf;shadow=1;" vertex="1" parent="1">
          <mxGeometry x="690" y="945" width="110" height="50.5" as="geometry" />
        </mxCell>
        <mxCell id="IaKo93D1F_9IdLXtNiBO-36" value="这里可以这样理解：&lt;br&gt;1. 通过前面的判断都为false，&lt;b&gt;明确不了插入的方向&lt;/b&gt;。&lt;br&gt;2.&amp;nbsp;如果没有实现Comparable接口，说明判断不了大小。&lt;br&gt;3.&amp;nbsp;如果实现了Comparable接口，但是&lt;b&gt;X&lt;/b&gt;和&lt;b&gt;P&lt;/b&gt;节点通过compareTo比较后相等。&lt;br&gt;&lt;br&gt;&lt;b&gt;所以需要调用&lt;span style=&quot;font-size: 12px; text-align: center;&quot;&gt;tieBreakOrder方法最终确认方向&lt;/span&gt;。&lt;/b&gt;" style="shape=callout;whiteSpace=wrap;perimeter=calloutPerimeter;rounded=1;position2=0.92;base=60;fontSize=8;align=left;html=1;spacingLeft=5;arcSize=50;" vertex="1" parent="1">
          <mxGeometry x="171.37" y="750" width="258.63" height="195" as="geometry" />
        </mxCell>
        <mxCell id="IaKo93D1F_9IdLXtNiBO-37" value="&lt;span style=&quot;color: rgb(0, 0, 0);&quot;&gt;这里最终能确定&lt;/span&gt;&lt;br style=&quot;color: rgb(0, 0, 0);&quot;&gt;&lt;span style=&quot;color: rgb(0, 0, 0);&quot;&gt;插入的方向是在树的&lt;/span&gt;&lt;br style=&quot;color: rgb(0, 0, 0);&quot;&gt;&lt;span style=&quot;color: rgb(0, 0, 0);&quot;&gt;左侧还是右侧&lt;/span&gt;" style="shape=callout;whiteSpace=wrap;html=1;perimeter=calloutPerimeter;position2=0.31;fillColor=#f5f5f5;fontColor=#333333;strokeColor=#666666;rounded=1;arcSize=50;" vertex="1" parent="1">
          <mxGeometry x="750" y="860" width="130" height="81" as="geometry" />
        </mxCell>
        <mxCell id="IaKo93D1F_9IdLXtNiBO-38" value="true" style="edgeLabel;html=1;align=center;verticalAlign=middle;resizable=0;points=[];fontSize=15;" vertex="1" connectable="0" parent="1">
          <mxGeometry x="565" y="1007" as="geometry">
            <mxPoint x="75" y="-39" as="offset" />
          </mxGeometry>
        </mxCell>
        <mxCell id="IaKo93D1F_9IdLXtNiBO-39" style="edgeStyle=orthogonalEdgeStyle;rounded=0;orthogonalLoop=1;jettySize=auto;html=1;exitX=0;exitY=0.5;exitDx=0;exitDy=0;exitPerimeter=0;entryX=0;entryY=0.5;entryDx=0;entryDy=0;entryPerimeter=0;" edge="1" parent="1" source="IaKo93D1F_9IdLXtNiBO-41" target="IaKo93D1F_9IdLXtNiBO-19">
          <mxGeometry relative="1" as="geometry">
            <Array as="points">
              <mxPoint x="120" y="1199" />
              <mxPoint x="120" y="579" />
            </Array>
          </mxGeometry>
        </mxCell>
        <mxCell id="IaKo93D1F_9IdLXtNiBO-40" value="" style="edgeStyle=orthogonalEdgeStyle;rounded=0;orthogonalLoop=1;jettySize=auto;html=1;" edge="1" parent="1" source="IaKo93D1F_9IdLXtNiBO-41" target="IaKo93D1F_9IdLXtNiBO-45">
          <mxGeometry relative="1" as="geometry" />
        </mxCell>
        <mxCell id="IaKo93D1F_9IdLXtNiBO-41" value="根据&lt;b&gt;P&lt;/b&gt;节点的子节点&lt;br&gt;是否是叶子节点" style="strokeWidth=1;html=1;shape=mxgraph.flowchart.decision;whiteSpace=wrap;fillColor=#f8cecc;strokeColor=#b85450;shadow=1;" vertex="1" parent="1">
          <mxGeometry x="435" y="1140" width="140" height="117" as="geometry" />
        </mxCell>
        <mxCell id="IaKo93D1F_9IdLXtNiBO-42" value="&lt;font color=&quot;#000000&quot;&gt;最终都是插入到树的尾部（也就是叶子节点处）&lt;/font&gt;" style="shape=callout;whiteSpace=wrap;html=1;perimeter=calloutPerimeter;position2=0.14;fillColor=#f5f5f5;fontColor=#333333;strokeColor=#666666;rounded=1;size=31;position=0.34;arcSize=50;" vertex="1" parent="1">
          <mxGeometry x="528" y="1070" width="145" height="91" as="geometry" />
        </mxCell>
        <mxCell id="IaKo93D1F_9IdLXtNiBO-43" value="false" style="edgeLabel;html=1;align=center;verticalAlign=middle;resizable=0;points=[];fontSize=15;" vertex="1" connectable="0" parent="1">
          <mxGeometry x="200" y="1236" as="geometry">
            <mxPoint x="75" y="-39" as="offset" />
          </mxGeometry>
        </mxCell>
        <mxCell id="IaKo93D1F_9IdLXtNiBO-44" value="" style="edgeStyle=orthogonalEdgeStyle;rounded=0;orthogonalLoop=1;jettySize=auto;html=1;" edge="1" parent="1" source="IaKo93D1F_9IdLXtNiBO-45" target="IaKo93D1F_9IdLXtNiBO-50">
          <mxGeometry relative="1" as="geometry" />
        </mxCell>
        <mxCell id="IaKo93D1F_9IdLXtNiBO-45" value="将&lt;b&gt;X&lt;/b&gt;节点设为&lt;br&gt;&lt;b&gt;P&lt;/b&gt;节点的左子节点或右子节点" style="rounded=1;whiteSpace=wrap;html=1;absoluteArcSize=1;arcSize=14;strokeWidth=1;fillColor=#dae8fc;strokeColor=#6c8ebf;shadow=1;" vertex="1" parent="1">
          <mxGeometry x="450" y="1320" width="110" height="50.5" as="geometry" />
        </mxCell>
        <mxCell id="IaKo93D1F_9IdLXtNiBO-46" value="true" style="edgeLabel;html=1;align=center;verticalAlign=middle;resizable=0;points=[];fontSize=15;" vertex="1" connectable="0" parent="1">
          <mxGeometry x="430" y="1320" as="geometry">
            <mxPoint x="75" y="-39" as="offset" />
          </mxGeometry>
        </mxCell>
        <mxCell id="IaKo93D1F_9IdLXtNiBO-47" value="&lt;font color=&quot;#000000&quot;&gt;通过dir变量判断&lt;/font&gt;" style="shape=callout;whiteSpace=wrap;html=1;perimeter=calloutPerimeter;position2=0.17;fillColor=#f5f5f5;fontColor=#333333;strokeColor=#666666;rounded=1;size=31;position=0.34;direction=east;arcSize=50;" vertex="1" parent="1">
          <mxGeometry x="560" y="1240" width="113.13" height="71" as="geometry" />
        </mxCell>
        <mxCell id="IaKo93D1F_9IdLXtNiBO-48" value="" style="edgeStyle=orthogonalEdgeStyle;rounded=0;orthogonalLoop=1;jettySize=auto;html=1;" edge="1" parent="1" source="IaKo93D1F_9IdLXtNiBO-50">
          <mxGeometry relative="1" as="geometry">
            <mxPoint x="505" y="1559" as="targetPoint" />
          </mxGeometry>
        </mxCell>
        <mxCell id="IaKo93D1F_9IdLXtNiBO-49" style="edgeStyle=orthogonalEdgeStyle;rounded=0;orthogonalLoop=1;jettySize=auto;html=1;exitX=1;exitY=0.5;exitDx=0;exitDy=0;exitPerimeter=0;" edge="1" parent="1" source="IaKo93D1F_9IdLXtNiBO-52">
          <mxGeometry relative="1" as="geometry">
            <mxPoint x="880" y="110" as="targetPoint" />
            <Array as="points">
              <mxPoint x="575" y="1620" />
              <mxPoint x="1040" y="1620" />
              <mxPoint x="1040" y="110" />
            </Array>
          </mxGeometry>
        </mxCell>
        <mxCell id="IaKo93D1F_9IdLXtNiBO-50" value="插入后维护树的平衡" style="rounded=1;whiteSpace=wrap;html=1;absoluteArcSize=1;arcSize=14;strokeWidth=1;fillColor=#dae8fc;strokeColor=#6c8ebf;shadow=1;" vertex="1" parent="1">
          <mxGeometry x="450" y="1440" width="110" height="50.5" as="geometry" />
        </mxCell>
        <mxCell id="IaKo93D1F_9IdLXtNiBO-51" value="" style="edgeStyle=orthogonalEdgeStyle;rounded=0;orthogonalLoop=1;jettySize=auto;html=1;" edge="1" parent="1" source="IaKo93D1F_9IdLXtNiBO-52" target="IaKo93D1F_9IdLXtNiBO-57">
          <mxGeometry relative="1" as="geometry" />
        </mxCell>
        <mxCell id="IaKo93D1F_9IdLXtNiBO-52" value="双链表节点已全部&lt;br&gt;转成红黑树节点？" style="strokeWidth=1;html=1;shape=mxgraph.flowchart.decision;whiteSpace=wrap;fillColor=#f8cecc;strokeColor=#b85450;shadow=1;" vertex="1" parent="1">
          <mxGeometry x="435" y="1560" width="140" height="117" as="geometry" />
        </mxCell>
        <mxCell id="IaKo93D1F_9IdLXtNiBO-53" value="end" style="strokeWidth=1;html=1;shape=mxgraph.flowchart.start_2;whiteSpace=wrap;labelBorderColor=none;strokeColor=#b85450;perimeterSpacing=1;fillColor=#f8cecc;shadow=1;fontSize=14;" vertex="1" parent="1">
          <mxGeometry x="465" y="1860" width="80" height="80" as="geometry" />
        </mxCell>
        <mxCell id="IaKo93D1F_9IdLXtNiBO-54" value="false" style="edgeLabel;html=1;align=center;verticalAlign=middle;resizable=0;points=[];fontSize=15;" vertex="1" connectable="0" parent="1">
          <mxGeometry x="630" y="1657" as="geometry">
            <mxPoint x="75" y="-39" as="offset" />
          </mxGeometry>
        </mxCell>
        <mxCell id="IaKo93D1F_9IdLXtNiBO-55" value="&lt;font color=&quot;#000000&quot;&gt;遍历双链表&lt;br&gt;下一个节点&lt;/font&gt;" style="shape=callout;whiteSpace=wrap;html=1;perimeter=calloutPerimeter;position2=0.17;fillColor=#f5f5f5;fontColor=#333333;strokeColor=#666666;rounded=1;size=31;position=0.34;direction=east;arcSize=50;" vertex="1" parent="1">
          <mxGeometry x="686.87" y="1530" width="113.13" height="71" as="geometry" />
        </mxCell>
        <mxCell id="IaKo93D1F_9IdLXtNiBO-56" value="" style="edgeStyle=orthogonalEdgeStyle;rounded=0;orthogonalLoop=1;jettySize=auto;html=1;" edge="1" parent="1" source="IaKo93D1F_9IdLXtNiBO-57" target="IaKo93D1F_9IdLXtNiBO-53">
          <mxGeometry relative="1" as="geometry" />
        </mxCell>
        <mxCell id="IaKo93D1F_9IdLXtNiBO-57" value="将树的根节点设为&lt;br&gt;哈希表的首节点" style="rounded=1;whiteSpace=wrap;html=1;absoluteArcSize=1;arcSize=14;strokeWidth=1;fillColor=#dae8fc;strokeColor=#6c8ebf;shadow=1;" vertex="1" parent="1">
          <mxGeometry x="450" y="1760" width="110" height="50.5" as="geometry" />
        </mxCell>
        <mxCell id="IaKo93D1F_9IdLXtNiBO-58" value="&lt;font color=&quot;#000000&quot;&gt;调用&lt;b&gt;moveRootToFront&lt;/b&gt;&lt;/font&gt;" style="shape=callout;whiteSpace=wrap;html=1;perimeter=calloutPerimeter;position2=0.91;fillColor=#f5f5f5;fontColor=#333333;strokeColor=#666666;rounded=1;size=31;position=0.34;direction=east;arcSize=50;base=35;" vertex="1" parent="1">
          <mxGeometry x="330" y="1700" width="116.57" height="71" as="geometry" />
        </mxCell>
        <mxCell id="IaKo93D1F_9IdLXtNiBO-59" value="true" style="edgeLabel;html=1;align=center;verticalAlign=middle;resizable=0;points=[];fontSize=15;" vertex="1" connectable="0" parent="1">
          <mxGeometry x="430" y="1740" as="geometry">
            <mxPoint x="75" y="-39" as="offset" />
          </mxGeometry>
        </mxCell>
        <mxCell id="IaKo93D1F_9IdLXtNiBO-60" value="&lt;font color=&quot;#000000&quot;&gt;还没到叶子节点，继续遍历树。&lt;b&gt;注意这里是沿着dir的方向遍历子节点&lt;/b&gt;&lt;/font&gt;" style="shape=callout;whiteSpace=wrap;html=1;perimeter=calloutPerimeter;position2=0.48;fillColor=#f5f5f5;fontColor=#333333;strokeColor=#666666;rounded=1;size=31;position=0.34;arcSize=50;" vertex="1" parent="1">
          <mxGeometry x="210" y="1100" width="145" height="91" as="geometry" />
        </mxCell>
      </root>
    </mxGraphModel>
  </diagram>
</mxfile>
